<?xml version="1.0" standalone="no"?>
<!DOCTYPE svg PUBLIC "-//W3C//DTD SVG 20010904//EN"
 "http://www.w3.org/TR/2001/REC-SVG-20010904/DTD/svg10.dtd">
<svg version="1.0" xmlns="http://www.w3.org/2000/svg"
 width="600.000000pt" height="600.000000pt" viewBox="0 0 600.000000 600.000000"
 preserveAspectRatio="xMidYMid meet">
<g transform="translate(0.000000,600.000000) scale(0.100000,-0.100000)"
fill="#000000" stroke="none">
<path d="M4226 5170 c-45 -14 -92 -51 -121 -95 -23 -36 -26 -48 -23 -110 5
-92 37 -143 115 -181 43 -22 62 -25 98 -21 90 13 157 66 184 146 17 53 13 93
-16 152 -45 87 -151 137 -237 109z m101 -25 c-1 -5 7 -9 18 -8 28 4 100 -60
92 -82 -4 -9 -3 -14 2 -11 11 7 30 -90 20 -101 -4 -4 -9 -21 -11 -38 -2 -18
-8 -29 -16 -27 -8 1 -11 -2 -7 -8 10 -16 -14 -41 -54 -57 -72 -31 -118 -31
-173 -3 -44 22 -53 31 -49 53 1 5 -2 6 -7 3 -13 -8 -36 40 -29 58 4 9 3 16 -2
16 -4 0 -8 18 -9 40 -1 22 3 40 9 40 5 0 9 6 8 13 -3 25 1 38 11 32 6 -3 10 0
10 8 0 21 47 60 61 52 8 -5 10 -4 5 3 -4 7 -1 12 6 13 20 1 49 7 53 11 8 8 63
2 62 -7z"/>
<path d="M4425 4910 c3 -5 8 -10 11 -10 2 0 4 5 4 10 0 6 -5 10 -11 10 -5 0
-7 -4 -4 -10z"/>
<path d="M4011 5024 c0 -11 3 -14 6 -6 3 7 2 16 -1 19 -3 4 -6 -2 -5 -13z"/>
<path d="M1682 3869 l4 -974 28 -103 c15 -57 41 -136 58 -175 98 -233 295
-445 513 -554 67 -34 184 -78 189 -72 2 2 16 29 31 59 90 179 222 297 563 501
209 126 345 214 412 267 190 152 347 358 430 565 69 172 95 303 130 642 22
223 42 313 91 412 18 38 35 72 37 76 9 18 -86 -48 -132 -92 -117 -112 -176
-242 -222 -496 -56 -313 -161 -525 -353 -715 -54 -54 -138 -124 -191 -159
-152 -101 -520 -271 -585 -271 -29 0 -80 37 -109 79 -60 87 -60 78 -66 771
l-5 635 -28 81 c-73 218 -266 398 -497 464 -46 13 -118 24 -188 27 l-113 6 3
-974z m68 936 c0 9 56 13 70 5 3 -1 21 -4 40 -5 19 -2 46 -6 60 -9 116 -26
121 -29 115 -44 -4 -12 -3 -13 10 -2 12 10 18 10 30 0 8 -7 12 -16 10 -21 -3
-4 3 -6 14 -4 21 4 71 -15 71 -27 0 -5 6 -8 13 -8 21 0 138 -114 140 -137 1
-18 4 -20 16 -10 11 8 10 3 -3 -18 -19 -30 -19 -30 0 -13 19 17 21 16 52 -38
18 -31 32 -62 32 -70 0 -8 4 -14 8 -14 10 0 39 -99 47 -164 4 -27 6 -307 6
-622 0 -357 3 -576 9 -579 6 -4 10 -11 10 -16 0 -6 -4 -8 -8 -5 -4 2 -7 -7 -6
-22 0 -14 6 -28 12 -30 6 -2 8 -10 5 -19 -4 -11 -2 -14 5 -9 8 5 10 2 6 -8 -3
-9 -1 -16 6 -16 6 0 8 -4 5 -10 -3 -5 -2 -10 2 -10 5 0 17 -16 28 -35 10 -20
40 -50 67 -67 26 -17 48 -35 48 -40 0 -5 5 -6 12 -2 6 4 8 3 4 -4 -3 -6 9 -39
27 -74 18 -35 39 -79 46 -98 7 -19 15 -30 18 -23 2 6 -5 31 -17 55 -21 41 -59
145 -60 161 0 4 3 6 8 6 21 -4 75 3 63 8 -14 6 44 31 84 37 11 2 24 4 28 5 5
0 6 5 2 10 -6 11 31 25 44 16 6 -3 13 0 18 7 4 7 37 28 72 47 35 18 60 28 57
22 -4 -6 -3 -11 3 -11 5 0 14 6 18 13 13 20 83 58 95 51 6 -4 8 -2 5 3 -4 6 0
16 8 23 12 10 18 10 30 0 9 -7 18 -10 22 -6 3 3 0 6 -7 6 -16 0 39 50 106 95
28 18 56 41 63 49 8 9 22 16 32 16 11 0 19 5 19 11 0 5 -4 7 -10 4 -16 -10
-11 1 7 16 15 12 16 12 8 -1 -4 -8 1 -6 12 5 11 11 19 22 17 24 -1 2 3 10 9
17 109 131 167 212 167 232 0 7 5 11 11 10 6 -2 14 3 17 11 3 9 0 11 -8 6 -9
-6 -9 -3 0 14 6 12 15 19 20 16 6 -3 7 1 4 10 -4 8 0 25 8 38 8 12 25 54 37
92 12 39 26 78 32 87 5 10 9 29 9 44 0 14 4 33 9 42 5 10 12 37 15 62 11 94
39 209 49 203 6 -4 8 0 4 10 -6 16 5 57 31 117 9 19 14 40 13 45 -1 6 1 7 5 3
4 -5 12 2 18 15 7 12 17 22 23 22 6 0 15 4 20 9 5 5 3 6 -4 2 -8 -4 -13 -1
-13 8 0 9 5 16 10 16 6 0 14 8 17 18 10 26 35 50 65 61 24 9 26 8 21 -7 -3 -9
-10 -23 -16 -29 -5 -7 -6 -13 -2 -13 4 0 1 -10 -7 -22 -8 -13 -15 -41 -17 -63
-2 -22 -7 -45 -12 -51 -4 -5 -5 -21 -2 -34 5 -17 3 -21 -7 -15 -10 6 -11 2 -6
-20 4 -15 2 -60 -3 -99 -6 -39 -13 -98 -16 -131 -8 -103 -39 -310 -46 -315 -3
-3 -5 -13 -3 -23 1 -10 -4 -21 -11 -23 -7 -3 -12 -15 -10 -25 5 -23 -43 -162
-56 -167 -5 -2 -7 -7 -4 -12 7 -12 -40 -95 -55 -95 -17 0 -24 -21 -10 -30 7
-4 2 -15 -14 -30 -14 -13 -22 -25 -20 -28 8 -7 -23 -55 -65 -101 -20 -21 -30
-36 -23 -32 20 12 14 1 -15 -25 -15 -13 -23 -17 -18 -8 6 8 1 4 -10 -10 -42
-54 -137 -141 -147 -135 -6 4 -8 2 -4 -4 3 -6 -20 -31 -54 -57 -33 -25 -60
-43 -60 -38 0 4 -5 0 -11 -9 -5 -10 -15 -18 -22 -18 -7 0 -6 4 3 10 9 6 10 10
3 10 -7 0 -28 -16 -47 -36 -32 -33 -38 -35 -53 -23 -16 12 -17 12 -5 -2 10
-14 8 -19 -13 -33 -18 -12 -24 -13 -23 -4 2 7 8 17 13 21 6 5 4 7 -5 4 -8 -2
-16 -9 -16 -15 -1 -7 -2 -16 -3 -20 0 -4 -14 -16 -31 -25 -22 -13 -30 -15 -30
-5 0 7 -7 2 -16 -10 -8 -12 -19 -22 -24 -22 -13 0 -90 -53 -90 -61 0 -5 -7 -6
-15 -3 -8 4 -15 1 -15 -5 0 -10 -53 -38 -56 -29 0 2 -8 -3 -17 -11 -9 -7 -14
-18 -10 -24 3 -5 2 -7 -4 -4 -5 4 -20 -3 -31 -14 l-22 -20 -20 33 c-11 18 -20
40 -21 48 0 9 -2 10 -5 3 -3 -6 2 -25 10 -41 8 -16 12 -33 8 -37 -4 -5 0 -5 8
-1 8 4 6 0 -4 -8 -11 -9 -24 -16 -29 -16 -4 0 -5 -5 -2 -10 4 -6 3 -10 -2 -9
-15 4 -43 -13 -37 -22 3 -5 -3 -6 -12 -2 -10 3 -15 2 -12 -3 2 -5 -6 -19 -19
-31 -13 -12 -23 -20 -23 -17 0 2 -15 -11 -32 -30 -77 -83 -113 -127 -110 -137
1 -6 -2 -8 -7 -5 -5 3 -16 -10 -25 -29 -9 -19 -21 -35 -26 -35 -5 0 -7 -6 -5
-12 3 -7 1 -19 -4 -27 -10 -16 -64 -18 -69 -2 -2 6 -8 9 -13 5 -5 -3 -9 0 -9
6 0 6 -6 10 -12 9 -26 -3 -39 1 -33 11 3 5 0 7 -8 4 -8 -3 -21 6 -31 21 -12
19 -23 24 -37 20 -11 -4 -19 -2 -19 4 0 6 -5 10 -12 9 -7 -2 -12 4 -13 12 0 8
-8 14 -16 12 -9 -1 -22 5 -29 13 -7 8 -19 15 -27 15 -8 0 -12 4 -9 9 3 4 -6
13 -20 20 -15 6 -22 16 -18 23 5 7 3 8 -5 3 -18 -11 -60 33 -55 58 3 16 1 18
-8 9 -10 -10 -19 -5 -40 20 -33 39 -34 44 -11 57 14 7 13 9 -9 8 -14 -1 -24
-6 -22 -12 3 -5 -1 -1 -8 9 -7 11 -26 35 -43 55 -16 19 -23 31 -15 26 9 -5 6
2 -6 16 -33 39 -55 79 -49 89 3 6 2 10 -3 10 -15 0 -21 25 -10 41 7 11 8 9 3
-6 -5 -15 -3 -17 6 -8 17 17 1 37 -18 22 -12 -11 -14 -10 -12 2 2 14 -11 54
-33 96 -6 13 -9 26 -6 29 4 3 0 21 -8 40 -8 20 -12 45 -8 61 4 16 3 24 -3 20
-5 -3 -11 -1 -12 6 -8 34 -8 1926 0 1921 5 -3 9 1 9 8 0 9 3 9 10 -2 5 -8 10
-10 10 -5z m530 -2705 c0 -5 -2 -10 -4 -10 -3 0 -8 5 -11 10 -3 6 -1 10 4 10
6 0 11 -4 11 -10z"/>
<path d="M2005 4751 c-3 -5 -2 -12 3 -15 5 -3 9 1 9 9 0 17 -3 19 -12 6z"/>
<path d="M2181 4666 c-8 -9 -8 -16 -2 -20 5 -4 13 -1 17 5 4 8 9 7 15 -2 5 -8
9 -9 9 -3 0 6 -6 17 -14 23 -10 8 -16 8 -25 -3z"/>
<path d="M2259 4588 c-8 -7 -12 -12 -10 -11 2 2 9 -1 15 -7 8 -6 12 -3 12 11
0 10 -1 19 -1 19 -1 0 -8 -6 -16 -12z"/>
<path d="M2290 4580 c0 -5 5 -10 11 -10 5 0 7 5 4 10 -3 6 -8 10 -11 10 -2 0
-4 -4 -4 -10z"/>
<path d="M4016 4243 c-6 -14 -5 -15 5 -6 7 7 10 15 7 18 -3 3 -9 -2 -12 -12z"/>
<path d="M3850 3425 c0 -5 5 -17 10 -25 5 -8 10 -10 10 -5 0 6 -5 17 -10 25
-5 8 -10 11 -10 5z"/>
<path d="M3645 3381 c-3 -5 -2 -12 3 -15 5 -3 9 1 9 9 0 17 -3 19 -12 6z"/>
<path d="M3559 3223 c-13 -16 -12 -17 4 -4 9 7 17 15 17 17 0 8 -8 3 -21 -13z"/>
<path d="M3696 3108 c3 -4 11 -5 19 -1 21 7 19 12 -4 10 -11 0 -18 -5 -15 -9z"/>
<path d="M1731 2984 c0 -11 3 -14 6 -6 3 7 2 16 -1 19 -3 4 -6 -2 -5 -13z"/>
<path d="M1721 2944 c0 -11 3 -14 6 -6 3 7 2 16 -1 19 -3 4 -6 -2 -5 -13z"/>
<path d="M3535 2949 c-3 -4 2 -6 10 -5 21 3 28 13 10 13 -9 0 -18 -4 -20 -8z"/>
<path d="M3045 2629 c-4 -6 -5 -12 -2 -15 2 -3 7 2 10 11 7 17 1 20 -8 4z"/>
<path d="M2064 2312 c4 -7 2 -12 -5 -12 -8 0 -9 -3 0 -13 6 -8 9 -17 6 -20 -3
-4 -2 -5 2 -2 11 8 11 45 0 52 -6 3 -7 1 -3 -5z"/>
<path d="M2115 2231 c-9 -15 15 -25 28 -12 9 9 7 10 -7 5 -13 -5 -17 -4 -12 4
4 7 5 12 2 12 -3 0 -7 -4 -11 -9z"/>
<path d="M4419 4590 c-61 -10 -99 -31 -139 -76 -73 -84 -99 -201 -101 -450 -3
-507 -44 -742 -175 -1009 -107 -219 -251 -376 -546 -598 -196 -146 -294 -239
-352 -331 -31 -49 -76 -146 -76 -163 0 -4 134 -5 297 -2 344 7 370 11 558 104
290 141 480 382 577 730 22 79 22 86 25 943 3 698 1 862 -9 861 -7 -1 -34 -5
-59 -9z m41 -39 c15 -29 8 -1629 -7 -1657 -7 -11 -13 -43 -15 -71 -2 -28 -6
-49 -10 -46 -5 2 -7 -4 -6 -14 3 -37 -2 -54 -14 -47 -6 4 -8 3 -5 -3 9 -14
-12 -73 -25 -73 -5 0 -6 -4 -3 -10 3 -5 1 -19 -6 -31 -9 -18 -13 -19 -21 -8
-8 11 -8 9 -4 -5 4 -10 1 -25 -5 -33 -7 -7 -9 -16 -6 -20 4 -3 1 -13 -5 -21
-7 -8 -17 -22 -23 -32 -40 -68 -67 -100 -78 -93 -7 4 -6 0 2 -11 13 -15 12
-18 -7 -23 -12 -3 -20 -9 -17 -13 6 -10 -47 -50 -65 -50 -6 0 -8 -4 -5 -10 3
-5 3 -15 -1 -21 -4 -8 -9 -7 -15 2 -6 10 -9 8 -9 -8 0 -13 -2 -23 -4 -23 -2 0
-12 -3 -22 -7 -10 -4 -15 -2 -11 3 3 5 -3 10 -14 10 -18 0 -18 -2 -5 -12 20
-14 21 -25 1 -18 -11 5 -13 2 -9 -10 4 -9 3 -16 -2 -14 -5 2 -26 -10 -46 -25
-21 -17 -42 -26 -49 -21 -7 4 -9 3 -5 -4 4 -6 -18 -22 -54 -40 -33 -16 -58
-31 -56 -33 3 -3 -6 -6 -20 -7 -17 -1 -23 2 -18 10 4 7 3 8 -5 4 -6 -4 -9 -11
-6 -16 5 -8 -51 -31 -85 -36 -8 -1 -37 -7 -65 -13 -69 -17 -197 -23 -189 -9 4
6 -1 6 -14 -1 -14 -7 -83 -11 -192 -10 -155 1 -170 3 -170 19 0 10 7 23 15 30
8 7 14 18 13 24 -5 21 59 111 124 176 93 91 143 137 134 123 -5 -9 -2 -11 8
-7 9 3 14 11 13 17 -1 6 12 18 30 26 17 9 40 25 50 37 10 11 24 19 32 16 9 -3
11 0 6 8 -6 10 -4 12 9 7 9 -4 15 -3 11 2 -6 11 46 51 66 51 7 0 9 3 6 6 -7 8
36 44 52 44 6 0 11 7 11 16 0 11 6 15 20 11 11 -3 18 -1 15 3 -8 12 26 50 44
50 8 0 12 3 9 6 -7 7 150 170 162 167 4 -1 7 6 6 15 -1 23 78 145 88 135 4 -5
6 -3 5 2 -2 6 5 31 15 58 19 47 19 47 39 30 20 -18 20 -18 4 6 -14 21 -14 27
-2 50 22 40 45 101 45 120 0 9 6 23 13 30 6 6 13 16 13 22 1 5 2 10 4 12 1 1
3 11 5 22 2 11 6 34 10 50 35 167 45 237 47 337 2 64 5 115 8 113 3 -2 6 88 6
198 1 111 4 231 6 267 6 70 24 130 40 130 5 0 6 4 3 10 -3 5 -1 18 5 27 11 17
11 17 6 0 -3 -11 -2 -15 4 -12 6 3 10 17 10 31 0 13 5 24 10 24 6 0 9 4 8 9
-2 5 1 9 6 9 5 0 12 5 15 11 10 16 76 46 106 49 15 1 28 -5 35 -17z"/>
<path d="M4165 2389 c-4 -6 -5 -12 -2 -15 2 -3 7 2 10 11 7 17 1 20 -8 4z"/>
<path d="M4183 2335 c0 -8 4 -12 9 -9 5 3 6 10 3 15 -9 13 -12 11 -12 -6z"/>
<path d="M4051 3694 c0 -11 3 -14 6 -6 3 7 2 16 -1 19 -3 4 -6 -2 -5 -13z"/>
<path d="M3446 2507 c3 -10 9 -15 12 -12 3 3 0 11 -7 18 -10 9 -11 8 -5 -6z"/>
<path d="M4226 2273 c-6 -14 -5 -15 5 -6 7 7 10 15 7 18 -3 3 -9 -2 -12 -12z"/>
<path d="M2019 2183 c-13 -16 -12 -17 4 -4 9 7 17 15 17 17 0 8 -8 3 -21 -13z"/>
<path d="M2531 1664 c-70 -59 -17 -167 74 -150 45 9 70 39 70 88 0 78 -83 114
-144 62z m82 -9 c10 -1 23 -8 30 -15 9 -10 9 -11 0 -6 -9 5 -11 2 -7 -8 3 -9
9 -14 14 -11 11 7 3 -46 -8 -57 -6 -6 -29 -11 -52 -12 -36 -2 -43 1 -55 24
-11 21 -11 30 -2 40 9 10 9 11 0 6 -7 -4 -13 -2 -13 3 0 6 7 11 16 11 9 0 12
5 8 12 -4 7 -3 8 5 4 6 -4 14 0 17 8 3 9 11 13 17 9 7 -4 20 -8 30 -8z"/>
<path d="M2605 1580 c-3 -6 1 -7 9 -4 18 7 21 14 7 14 -6 0 -13 -4 -16 -10z"/>
<path d="M1140 1640 c-1 -3 -1 -123 0 -268 1 -235 3 -269 20 -315 45 -119 134
-178 279 -185 70 -3 97 0 142 17 75 28 132 80 166 149 l28 57 3 275 3 275 -85
0 -86 0 0 -255 c0 -230 -2 -259 -19 -290 -49 -92 -193 -101 -255 -17 -20 27
-21 45 -26 294 l-5 265 -83 1 c-45 1 -82 0 -82 -3z m134 -37 c3 -10 6 -112 6
-228 1 -262 2 -282 18 -295 9 -7 9 -7 2 2 -5 7 -10 17 -10 22 0 14 34 -35 37
-52 2 -17 -1 -14 48 -37 48 -23 127 -23 161 0 16 10 24 12 24 4 0 -6 17 14 39
45 l38 57 4 157 c2 86 3 197 2 245 -1 54 2 85 7 82 6 -4 10 -2 10 2 0 12 62
15 79 4 12 -8 14 -51 13 -257 -1 -136 -6 -252 -11 -257 -5 -5 -7 -16 -4 -23 3
-8 0 -14 -6 -14 -6 0 -10 -3 -10 -7 4 -23 -3 -35 -15 -30 -9 4 -13 0 -12 -10
5 -32 -69 -90 -106 -84 -5 0 -8 -3 -8 -9 0 -6 -3 -9 -7 -8 -5 1 -19 -4 -32
-11 -17 -9 -21 -10 -16 -1 6 9 3 9 -11 2 -23 -12 -147 -4 -155 10 -3 5 -9 9
-13 9 -3 -1 -16 -1 -28 -1 -19 0 -20 2 -8 10 13 8 12 10 -3 10 -10 0 -15 4
-12 10 4 6 -1 7 -11 3 -14 -5 -16 -3 -11 12 7 16 5 16 -10 4 -15 -13 -16 -12
-11 9 5 18 4 21 -7 12 -17 -14 -53 34 -50 67 1 12 -2 20 -6 17 -8 -5 -32 96
-24 104 3 3 5 -3 5 -13 0 -10 3 -16 6 -12 4 3 3 14 -1 24 -4 10 -10 110 -12
222 -5 227 -7 221 64 221 31 0 43 -4 47 -17z"/>
<path d="M1515 991 c-3 -5 0 -13 6 -17 7 -4 9 -3 5 4 -3 5 0 13 6 15 9 4 10 6
1 6 -6 1 -14 -3 -18 -8z"/>
<path d="M1606 952 c-3 -5 1 -9 9 -9 8 0 12 4 9 9 -3 4 -7 8 -9 8 -2 0 -6 -4
-9 -8z"/>
<path d="M1340 940 c-9 -6 -10 -10 -3 -10 6 0 15 5 18 10 8 12 4 12 -15 0z"/>
<path d="M2800 1263 l0 -383 83 0 84 0 -5 124 -5 123 109 5 c120 5 160 18 217
67 72 63 99 207 56 301 -25 56 -53 86 -104 113 -36 19 -61 22 -238 27 l-197 5
0 -382z m430 325 c25 -15 41 -28 35 -28 -5 -1 1 -7 14 -14 23 -13 31 -28 34
-68 1 -9 5 -14 9 -12 8 5 11 -33 10 -108 -2 -55 -46 -135 -90 -161 -76 -45
-192 -61 -212 -29 -11 16 -11 16 -6 0 4 -14 0 -18 -17 -18 -13 0 -29 6 -36 13
-10 10 -11 8 -5 -7 5 -13 4 -17 -4 -12 -7 4 -13 6 -13 4 -1 -2 -4 -57 -8 -123
l-6 -120 -37 -3 c-74 -6 -71 -16 -73 289 -1 151 0 308 3 349 l4 75 177 0 c174
0 176 0 221 -27z"/>
<path d="M2954 1508 c-12 -13 -16 -40 -16 -119 0 -96 2 -104 25 -125 14 -13
27 -21 30 -18 3 3 29 5 58 5 57 1 125 25 147 52 41 49 28 144 -25 196 -14 14
-23 19 -18 11 8 -13 7 -13 -9 -1 -27 22 -172 22 -192 -1z m195 -22 c48 -26 66
-98 36 -155 -19 -38 -35 -44 -137 -50 l-86 -6 -1 113 -1 112 80 0 c51 0 91 -5
109 -14z"/>
<path d="M4138 1503 c7 -3 16 -2 19 1 4 3 -2 6 -13 5 -11 0 -14 -3 -6 -6z"/>
<path d="M2112 1430 c-19 -11 -45 -33 -58 -48 l-25 -27 3 43 4 42 -78 0 -78 0
0 -280 0 -280 80 0 80 0 0 175 c0 110 4 183 12 199 34 77 159 76 188 0 6 -14
10 -104 10 -200 l0 -174 81 0 81 0 -4 208 c-4 167 -8 215 -22 247 -35 82 -88
115 -183 115 -41 0 -68 -6 -91 -20z m173 -24 c9 -9 20 -14 25 -11 5 3 17 -7
28 -22 25 -38 37 -63 18 -39 -9 11 -16 15 -16 9 0 -7 8 -19 18 -29 15 -15 17
-42 20 -205 1 -115 -2 -190 -8 -194 -15 -10 -80 -16 -81 -7 0 4 -3 16 -5 27
-7 26 -5 114 2 193 4 42 2 67 -6 77 -6 8 -9 19 -5 24 3 6 0 18 -7 27 -25 31
-78 84 -83 84 -42 -1 -49 1 -35 10 9 6 10 10 3 10 -6 0 -19 -7 -27 -16 -9 -8
-20 -13 -25 -10 -5 3 -12 -1 -15 -10 -3 -9 -13 -14 -21 -10 -8 3 -17 0 -21 -6
-4 -7 -3 -8 4 -4 19 11 14 -2 -8 -24 -18 -18 -25 -18 -21 3 1 5 -3 6 -9 2 -7
-4 -7 -12 0 -24 5 -10 7 -21 4 -24 -3 -3 -5 -66 -5 -141 1 -74 -1 -146 -4
-159 -8 -29 -46 -43 -75 -27 -20 11 -20 20 -18 258 l3 247 23 3 c13 2 31 0 40
-4 9 -4 20 -7 24 -6 4 1 7 -6 7 -16 1 -40 5 -51 19 -57 8 -3 20 2 27 11 8 11
17 14 26 9 12 -7 12 -6 1 7 -10 13 -10 17 3 22 8 3 18 5 21 5 4 0 10 5 15 12
4 7 20 14 36 17 15 2 30 6 33 8 10 11 79 -4 95 -20z"/>
<path d="M2245 1410 c-3 -5 -1 -10 4 -10 6 0 11 5 11 10 0 6 -2 10 -4 10 -3 0
-8 -4 -11 -10z"/>
<path d="M2137 1399 c7 -7 15 -10 18 -7 3 3 -2 9 -12 12 -14 6 -15 5 -6 -5z"/>
<path d="M2316 1377 c3 -10 9 -15 12 -12 3 3 0 11 -7 18 -10 9 -11 8 -5 -6z"/>
<path d="M2213 1335 c0 -8 4 -12 9 -9 5 3 6 10 3 15 -9 13 -12 11 -12 -6z"/>
<path d="M3522 1424 c-29 -14 -65 -42 -79 -61 -27 -35 -27 -36 -8 -50 11 -8
38 -24 59 -35 l40 -20 18 26 c42 57 155 51 178 -9 20 -52 17 -54 -80 -54 -112
1 -178 -19 -219 -67 -37 -41 -45 -69 -39 -133 9 -93 79 -151 184 -151 65 0
137 29 155 62 10 19 12 18 27 -14 17 -32 18 -33 90 -36 l72 -3 0 54 c0 40 -4
56 -15 61 -12 4 -15 30 -15 144 0 147 -8 186 -47 238 -56 75 -219 99 -321 48z
m72 -6 c-6 -10 -4 -10 7 0 20 19 100 15 144 -8 22 -11 43 -20 48 -20 11 0 29
-18 51 -52 14 -22 15 -28 5 -29 -10 0 -10 -2 -2 -5 7 -3 9 -12 6 -21 -4 -9 -2
-14 3 -11 13 9 18 -226 5 -251 -9 -17 -8 -22 9 -31 29 -15 29 -85 0 -87 -11
-1 -22 3 -26 8 -4 6 -10 6 -19 -1 -18 -15 -42 -3 -66 36 -11 19 -23 34 -25 34
-3 0 -3 -4 1 -9 6 -10 -11 -24 -34 -28 -7 -1 -19 -7 -25 -13 -8 -8 -6 -9 9 -5
11 4 7 -2 -10 -12 -16 -11 -32 -16 -33 -11 -2 5 -10 4 -18 -3 -11 -9 -14 -8
-14 2 0 12 -2 12 -9 0 -6 -9 -19 -12 -42 -7 -19 3 -40 7 -46 8 -7 1 -13 5 -13
9 0 5 -8 6 -17 3 -17 -5 -17 -5 0 9 16 13 16 15 2 21 -9 3 -13 2 -10 -4 3 -6
1 -10 -5 -10 -6 0 -19 13 -28 30 -9 16 -21 30 -26 30 -5 0 -2 8 5 17 10 11 10
14 2 9 -9 -5 -13 0 -13 14 0 13 4 19 11 14 8 -4 8 0 0 15 -16 30 5 71 46 92
18 9 30 19 27 21 -3 3 2 8 11 12 11 4 14 2 9 -7 -5 -7 0 -5 11 3 13 11 45 15
118 16 114 1 128 10 109 70 -6 21 -6 36 0 42 6 6 5 12 -3 17 -8 5 -10 4 -5 -3
4 -7 2 -12 -4 -12 -6 0 -13 7 -17 16 -3 8 -12 13 -19 10 -8 -3 -14 -1 -14 5 0
6 -21 9 -50 8 -27 -2 -50 -7 -50 -11 0 -5 -4 -7 -9 -4 -5 4 -18 -6 -29 -21
-13 -18 -24 -24 -36 -20 -10 4 -14 12 -10 18 4 7 3 9 -4 6 -16 -11 -42 3 -42
23 0 10 8 24 17 31 15 12 16 12 8 -1 -8 -13 -6 -13 8 -1 9 7 15 17 12 21 -3 5
62 33 93 39 2 1 0 -5 -4 -11z"/>
<path d="M3615 1142 c-11 -2 -31 -9 -45 -15 -14 -6 -28 -10 -31 -9 -3 0 -6 -4
-7 -11 -1 -7 -5 -29 -8 -49 -5 -31 -2 -41 19 -62 14 -14 23 -26 22 -28 -11
-10 105 -1 118 10 12 10 17 10 23 1 5 -8 3 -9 -6 -4 -9 5 -11 4 -6 -4 4 -6 12
-9 17 -5 6 3 8 8 5 11 -10 10 15 45 28 40 7 -3 13 1 13 9 0 7 -5 10 -11 7 -6
-3 -5 0 2 8 6 7 12 27 12 45 0 17 -6 36 -12 41 -15 12 -104 22 -133 15z m122
-59 c-9 -55 -54 -93 -112 -93 -90 0 -116 77 -40 118 11 6 51 12 89 12 l69 0
-6 -37z"/>
<path d="M3586 1057 c3 -10 9 -15 12 -12 3 3 0 11 -7 18 -10 9 -11 8 -5 -6z"/>
<path d="M3457 1129 c7 -7 15 -10 18 -7 3 3 -2 9 -12 12 -14 6 -15 5 -6 -5z"/>
<path d="M3770 949 c0 -5 5 -7 10 -4 6 3 10 8 10 11 0 2 -4 4 -10 4 -5 0 -10
-5 -10 -11z"/>
<path d="M4100 1434 c-73 -32 -110 -86 -110 -161 0 -86 43 -127 177 -168 77
-24 113 -45 113 -66 0 -23 -42 -49 -77 -49 -38 0 -98 29 -119 58 -10 14 -18
11 -67 -22 l-56 -39 20 -25 c52 -66 114 -92 224 -92 136 0 219 67 219 175 0
93 -51 143 -178 174 -75 18 -106 38 -106 66 0 58 92 61 155 5 19 -17 22 -17
72 25 l52 43 -27 25 c-66 63 -208 88 -292 51z m193 -20 c21 -3 44 -15 50 -25
7 -11 19 -19 27 -19 13 0 13 -1 0 -10 -8 -5 -11 -10 -6 -10 6 0 1 -6 -9 -14
-11 -8 -23 -12 -28 -9 -4 2 -6 1 -5 -4 2 -4 -1 -8 -7 -8 -5 0 -8 5 -7 10 2 6
0 7 -4 2 -4 -4 -17 -1 -29 7 -21 14 -127 27 -119 15 2 -4 -6 -15 -18 -25 -14
-12 -19 -14 -13 -4 4 8 4 12 0 7 -5 -4 -9 -21 -10 -38 -2 -37 44 -77 95 -83
18 -2 35 -8 39 -12 3 -5 11 -9 16 -10 40 -3 75 -18 71 -30 -3 -9 0 -11 11 -7
12 5 14 3 8 -7 -6 -10 -4 -12 11 -6 10 4 15 4 12 0 -4 -3 -1 -13 7 -21 8 -8
16 -23 16 -34 1 -10 2 -27 2 -36 2 -29 -21 -83 -37 -89 -9 -3 -13 -11 -9 -18
4 -6 0 -6 -9 2 -13 10 -18 10 -24 1 -4 -8 -3 -9 4 -5 7 4 12 2 12 -4 0 -13
-40 -29 -58 -23 -7 3 -19 0 -27 -7 -13 -11 -49 -10 -135 4 -14 3 -29 5 -35 5
-5 1 -21 11 -35 22 -14 11 -19 17 -11 13 10 -5 12 -3 7 5 -5 7 -14 10 -21 7
-23 -8 -27 26 -5 46 11 10 20 16 20 13 0 -3 10 -1 21 6 12 6 19 7 15 1 -3 -5
1 -13 10 -16 8 -3 13 -10 9 -15 -3 -5 0 -13 6 -17 8 -5 9 -3 4 6 -6 10 -4 12
11 6 56 -23 108 -23 142 -2 7 4 20 5 29 2 13 -5 14 -4 4 8 -8 10 -9 16 -1 21
6 3 8 11 5 16 -4 5 1 9 10 9 12 0 11 5 -7 23 -38 36 -72 63 -65 51 6 -11 -102
23 -140 44 -13 7 -23 10 -23 6 0 -4 -13 11 -29 32 -24 33 -28 47 -26 92 3 70
32 101 125 136 16 6 93 1 153 -10z"/>
<path d="M4127 1399 c7 -7 15 -10 18 -7 3 3 -2 9 -12 12 -14 6 -15 5 -6 -5z"/>
<path d="M4060 973 c5 -2 8 -9 5 -13 -3 -5 -1 -11 4 -14 5 -4 8 2 7 11 -2 9
-8 18 -15 19 -6 1 -7 0 -1 -3z"/>
<path d="M4615 1438 c-83 -30 -132 -104 -120 -183 11 -76 58 -115 180 -150
103 -29 133 -65 83 -99 -44 -31 -147 -6 -164 39 -4 8 -10 15 -15 15 -12 0
-109 -72 -109 -80 0 -12 66 -68 100 -86 44 -22 170 -30 227 -15 82 22 133 86
133 166 0 91 -41 132 -169 171 -118 36 -147 65 -99 98 41 29 123 11 146 -31 8
-14 16 -11 61 27 28 24 51 47 51 51 0 12 -62 57 -103 74 -42 17 -156 19 -202
3z m187 -25 c32 -10 58 -24 58 -31 0 -7 7 -15 17 -19 14 -5 13 -8 -6 -15 -14
-5 -20 -12 -15 -20 5 -9 2 -8 -9 1 -15 12 -17 12 -11 -3 10 -25 -29 -20 -55 8
-24 25 -78 32 -93 11 -5 -6 -8 -4 -8 4 0 10 -10 5 -30 -14 -16 -16 -30 -35
-30 -43 0 -26 42 -84 56 -78 8 3 14 0 14 -7 0 -8 4 -6 10 3 5 8 10 10 10 4 0
-6 25 -17 55 -24 36 -9 55 -18 55 -28 0 -11 3 -12 14 -3 11 9 19 5 40 -19 14
-18 26 -35 27 -38 7 -53 6 -101 -3 -96 -7 4 -8 2 -4 -4 8 -14 -24 -73 -36 -66
-4 3 -8 0 -8 -7 0 -7 -3 -9 -7 -6 -3 4 -12 2 -20 -4 -7 -6 -13 -8 -13 -3 0 5
-5 2 -10 -6 -13 -20 -155 -23 -185 -4 -11 7 -30 15 -41 17 -24 3 -57 33 -60
53 -1 7 5 19 14 26 10 8 13 9 9 1 -4 -6 -3 -15 3 -18 6 -4 10 -3 9 2 -8 45 20
58 45 21 9 -12 16 -18 16 -13 0 6 6 3 13 -5 14 -18 27 -21 89 -24 29 -1 44 2
41 8 -4 5 1 7 11 3 10 -4 15 -3 11 3 -3 6 0 12 7 15 18 7 21 54 6 73 -8 9 -8
13 -2 9 7 -4 11 2 10 15 -1 12 -9 22 -19 24 -9 1 -15 -2 -11 -7 3 -5 10 -7 15
-4 5 4 9 1 9 -4 0 -15 -23 -14 -38 2 -7 6 -16 12 -20 13 -4 0 -25 6 -46 12
-22 6 -42 10 -44 7 -6 -6 -82 47 -107 74 -16 19 -17 24 -5 32 13 8 13 11 -1
19 -10 6 -14 19 -11 38 5 38 60 105 79 98 8 -3 12 -2 8 3 -8 13 43 29 95 30
25 1 71 -7 102 -16z"/>
<path d="M4626 1381 c-3 -5 2 -15 12 -22 15 -12 16 -12 5 2 -7 9 -10 19 -6 22
3 4 4 7 0 7 -3 0 -8 -4 -11 -9z"/>
<path d="M4625 1161 c-3 -5 -2 -12 3 -15 5 -3 9 1 9 9 0 17 -3 19 -12 6z"/>
<path d="M2510 1160 l0 -280 80 0 80 0 0 280 0 280 -80 0 -80 0 0 -280z m118
244 c10 -3 12 -57 10 -249 -2 -135 -6 -245 -10 -246 -5 0 -24 -1 -44 -1 l-36
-1 -4 182 c-2 100 -6 186 -9 191 -3 6 -1 10 5 10 7 0 8 21 4 65 l-7 64 39 -5
c22 -3 45 -7 52 -10z m-91 -356 c-3 -7 -5 -2 -5 12 0 14 2 19 5 13 2 -7 2 -19
0 -25z"/>
<path d="M4930 1436 c0 -2 8 -10 18 -17 15 -13 16 -12 3 4 -13 16 -21 21 -21
13z"/>
<path d="M4430 1410 c0 -5 5 -10 11 -10 5 0 7 5 4 10 -3 6 -8 10 -11 10 -2 0
-4 -4 -4 -10z"/>
<path d="M4929 1293 c-13 -16 -12 -17 4 -4 9 7 17 15 17 17 0 8 -8 3 -21 -13z"/>
<path d="M3379 1153 l-24 -28 28 24 c25 23 32 31 24 31 -2 0 -14 -12 -28 -27z"/>
<path d="M4006 1132 c-3 -5 1 -9 9 -9 8 0 12 4 9 9 -3 4 -7 8 -9 8 -2 0 -6 -4
-9 -8z"/>
<path d="M4158 1053 c7 -3 16 -2 19 1 4 3 -2 6 -13 5 -11 0 -14 -3 -6 -6z"/>
<path d="M1200 905 c0 -2 6 -8 13 -14 10 -8 14 -7 14 2 0 8 -6 14 -14 14 -7 0
-13 -1 -13 -2z"/>
</g>
</svg>
